<svg xmlns="http://www.w3.org/2000/svg" viewBox="0 0 122.82 183.06"><defs><style>.cls-1{fill:#F2E1CD;}.cls-2{fill:none;stroke:#3C3C3C;stroke-miterlimit:10;stroke-width:6px;}</style></defs><title>hands-vector-free-icon-set-04</title><g id="Warstwa_3" data-name="Warstwa 3"><path class="cls-1" d="M53.92,24.8V14a11,11,0,0,1,22,0V24.8a11,11,0,0,1,22,0V59.91a11,11,0,0,1,22,0v63.62a56.53,56.53,0,0,1-56.53,56.53H59.53A56.53,56.53,0,0,1,3,123.53V85.79a14.48,14.48,0,1,1,29,0v-61a11,11,0,0,1,22,0Z"/><path class="cls-2" d="M119.82,123.53a56.53,56.53,0,0,1-56.53,56.53H59.53A56.53,56.53,0,0,1,3,123.53v-8.76"/><path class="cls-2" d="M97.85,59.91a11,11,0,0,1,22,0v66.56"/><path class="cls-2" d="M75.89,24.8a11,11,0,0,1,22,0V98.52"/><line class="cls-2" x1="75.89" y1="87.54" x2="75.89" y2="87.53"/><path class="cls-2" d="M53.92,24.8V14a11,11,0,0,1,22,0V87.53"/><path class="cls-2" d="M32,85.79v-61a11,11,0,0,1,22,0V92.53"/><path class="cls-2" d="M3,114.77v-29a14.48,14.48,0,1,1,29,0v27.87"/><path class="cls-2" d="M32,113.66v4.7a17.27,17.27,0,0,0,17.27,17.27"/></g></svg>