<?xml version="1.0" encoding="utf-8"?>
<!-- Generator: Adobe Illustrator 23.0.6, SVG Export Plug-In . SVG Version: 6.00 Build 0)  -->
<svg version="1.1" id="Warstwa_1" xmlns="http://www.w3.org/2000/svg" xmlns:xlink="http://www.w3.org/1999/xlink" x="0px" y="0px"
	 viewBox="0 0 122.8 183.1" style="enable-background:new 0 0 122.8 183.1;" xml:space="preserve">
<style type="text/css">
	.st0{fill:#F2E1CD;}
	.st1{fill:none;stroke:#3C3C3C;stroke-width:6;stroke-miterlimit:10;}
</style>
<title>hands-vector-free-icon-set-04</title>
<g>
	<path class="st0" d="M53.9,71c0.2-6,5.2-10.8,11.3-10.6c5.8,0.2,10.4,4.8,10.6,10.6v40.8c-0.2,6-5.2,10.8-11.3,10.6
		c-5.8-0.2-10.4-4.8-10.6-10.6V71z"/>
	<path class="st0" d="M30.5,74.9c0-6,5.2-10.9,11.7-10.9c3.1,0,6,1.1,8.3,3.2c2.2,2,3.4,4.8,3.4,7.7v27.8h-0.2
		c0-6-4.9-10.9-10.9-10.9c0,0,0,0,0,0H30.5V74.9z"/>
	<path class="st0" d="M75.7,74.9c0.2-6,5.2-10.8,11.3-10.6c5.8,0.2,10.4,4.8,10.6,10.6v36.8c-0.2,6-5.2,10.8-11.3,10.6
		c-5.8-0.2-10.4-4.8-10.6-10.6V74.9z"/>
	<path class="st0" d="M97.6,81.9c0-6,4.9-10.9,10.9-10.9c6,0,10.9,4.9,10.9,10.9v28.6c0,1.1-0.2,2.2-0.5,3.3
		c-1.8,5.8-8,8.9-13.7,7.1c-4.5-1.4-7.6-5.7-7.6-10.4V81.9z"/>
	<path class="st0" d="M30.5,114c-0.1,2.7,1.2,5.2,3.4,6.6c2.5,1.5,5.4,2.2,8.3,2.1c6.4,0,11.7-4.9,11.7-10.9
		c0.2,6,5.2,10.8,11.3,10.6c5.8-0.2,10.4-4.8,10.6-10.6c0.2,6,5.2,10.8,11.3,10.6c5.8-0.2,10.4-4.8,10.6-10.6v-1.2
		c0,6,4.9,10.9,10.9,10.9c4.8,0,9-3.1,10.4-7.6l0.5,0.2v9.8c0,31.1-25.2,56.3-56.3,56.3h-3.8c-31.1,0-56.3-25.2-56.3-56.3V109
		c0-9.5,7.7-17.2,17.2-17.2c0,0,0,0,0,0h22.3c6,0.2,10.8,5.2,10.6,11.3c-0.2,5.8-4.8,10.4-10.6,10.6H30.5V114z"/>
	<path class="st0" d="M30.5,114v-0.3h12.2c6,0,10.9-4.9,10.9-10.9h0.2v9c0,6-5.2,10.9-11.7,10.9c-2.9,0.1-5.8-0.6-8.3-2.1
		C31.7,119.1,30.4,116.6,30.5,114z"/>
	<path class="st1" d="M119.5,114v9.8c0,31.1-25.2,56.3-56.3,56.3c0,0,0,0,0,0h-3.7c-31.1,0-56.3-25.2-56.3-56.3V109
		c0-9.5,7.7-17.2,17.2-17.2c0,0,0,0,0,0h22.3c6,0.2,10.8,5.2,10.6,11.3c-0.2,5.8-4.8,10.4-10.6,10.6H30.5v4.9
		c0,9.5,9.2,17.2,18.7,17.2"/>
	<path class="st1" d="M97.6,81.9c0-6,4.9-10.9,10.9-10.9c6,0,10.9,4.9,10.9,10.9V103"/>
	<path class="st1" d="M119.5,103v7.5c0,1.1-0.2,2.2-0.5,3.3c-1.8,5.8-8,8.9-13.7,7.1c-4.5-1.4-7.6-5.7-7.6-10.4"/>
	<path class="st1" d="M75.7,74.9c0.2-6,5.2-10.8,11.3-10.6c5.8,0.2,10.4,4.8,10.6,10.6v36.8c-0.2,6-5.2,10.8-11.3,10.6
		c-5.8-0.2-10.4-4.8-10.6-10.6"/>
	<path class="st1" d="M53.9,111.8c0,6-5.2,10.9-11.7,10.9c-2.9,0.1-5.8-0.6-8.3-2.1c-2.2-1.5-3.5-4-3.4-6.6"/>
	<path class="st1" d="M30.5,91.9V74.9c0-6,5.2-10.9,11.7-10.9c3.1,0,6,1.1,8.3,3.2c2.2,2,3.4,4.8,3.4,7.7"/>
	<path class="st1" d="M53.9,74.9v-4c0.2-6,5.2-10.8,11.3-10.6c5.8,0.2,10.4,4.8,10.6,10.6v40.8c-0.2,6-5.2,10.8-11.3,10.6
		c-5.8-0.2-10.4-4.8-10.6-10.6V74.9z"/>
</g>
</svg>
