<svg xmlns="http://www.w3.org/2000/svg" viewBox="0 0 125.62 185.85"><defs><style>.cls-1{fill:#F2E1CD;}.cls-2{fill:none;stroke:#3C3C3C;stroke-miterlimit:10;stroke-width:6px;}</style></defs><title>hands-vector-free-icon-set-04</title><g id="Warstwa_2" data-name="Warstwa 2"><path class="cls-1" d="M32.65,92.12,20,26A11,11,0,0,1,30.86,12.63a10.19,10.19,0,0,1,7.36,3.09,15,15,0,0,1,3.86,7.38c.39,1.75,13.06,62.46,13.06,62.46V14.25a11.25,11.25,0,1,1,22.49,0v98.32a11.25,11.25,0,0,0,22.5,0v-1.28a11.25,11.25,0,0,0,22,3.41l.53.17V125a57.88,57.88,0,0,1-57.88,57.88H60.88A57.88,57.88,0,0,1,3,125V109.8A17.68,17.68,0,0,1,20.68,92.12Z"/><path class="cls-1" d="M77.63,74.74a11.25,11.25,0,0,1,22.5,0v37.83a11.25,11.25,0,0,1-22.5,0V74.74Z"/><path class="cls-1" d="M100.13,81.89a11.25,11.25,0,0,1,22.49,0v29.4a11.25,11.25,0,1,1-22.49,0Z"/><path class="cls-2" d="M55.14,85.56V14.25a11.25,11.25,0,1,1,22.49,0V74.74"/><path class="cls-2" d="M32.65,92.12,20,26A11,11,0,0,1,30.86,12.63a10.19,10.19,0,0,1,7.36,3.09,15,15,0,0,1,3.86,7.38c.39,1.75,13.06,62.46,13.06,62.46"/><path class="cls-2" d="M122.62,114.87V125a57.88,57.88,0,0,1-57.88,57.88H60.88A57.88,57.88,0,0,1,3,125V109.8A17.68,17.68,0,0,1,20.68,92.12h23a11.25,11.25,0,1,1,0,22.49h-11v5.07a17.68,17.68,0,0,0,17.68,17.68"/><path class="cls-2" d="M100.13,81.89a11.25,11.25,0,0,1,22.49,0v21.73"/><path class="cls-2" d="M122.62,103.62v7.67a11.25,11.25,0,1,1-22.49,0"/><path class="cls-2" d="M77.63,74.74a11.25,11.25,0,0,1,22.5,0v37.83a11.25,11.25,0,0,1-22.5,0V74.74Z"/></g></svg>